<svg width="128" height="128" viewBox="0 0 128 128" fill="none" xmlns="http://www.w3.org/2000/svg">
<circle cx="64" cy="64" r="64" fill="#FFCA28"/>
<path d="M103.77 73H24.2296C20.4727 73 17.7395 76.387 19.0279 79.916C23.207 91.3631 34.9487 113 64 113C93.0513 113 104.793 91.3631 108.972 79.916C110.26 76.387 107.527 73 103.77 73Z" fill="white"/>
<path d="M51 50C51 46.8174 49.7357 43.7652 47.4853 41.5147C45.2348 39.2643 42.1826 38 39 38C35.8174 38 32.7652 39.2643 30.5147 41.5147C28.2643 43.7652 27 46.8174 27 50" stroke="#444444" stroke-width="10" stroke-linecap="round"/>
<path d="M101 50C101 46.8174 99.7357 43.7652 97.4853 41.5147C95.2348 39.2643 92.1826 38 89 38C85.8174 38 82.7652 39.2643 80.5147 41.5147C78.2643 43.7652 77 46.8174 77 50" stroke="#444444" stroke-width="10" stroke-linecap="round"/>
</svg>
